<svg version="1.2" xmlns="http://www.w3.org/2000/svg" viewBox="0 0 120 90" width="120" height="90"  fill="#4a90e2"><style></style><path d="m57.3 9.3c0.6 1.8 4.7 2.1 4.7 0.2 0-1-0.9-1.5-2.6-1.5-1.6 0-2.4 0.4-2.1 1.2z"/><path  d="m30 12.8c0 0.5 1.4 1.2 3.1 1.5 6.4 1.3 8.9 5.5 8.9 14.6 0 11.4-1.7 14-11 17.4-0.8 0.3 3.1 0.6 8.6 0.6 14.7 0.1 21-8 17.4-22.8-2.2-9.5-5.2-11.6-16.9-12-6.1-0.2-10.1 0.1-10.1 0.7z"/><path  d="m55.8 15.4c6.7 7.6 6.9 21 0.5 28.5l-2.5 3.1h6.4c10.3 0 14.8-5.3 14.8-17.2 0-12.3-4.9-17.8-16-17.8h-6.2z"/><path  d="m72.7 14.3c7.4 7.9 7.5 23.5 0.4 30.6l-2.1 2.1h3.7c11.2 0 18.2-12 14.2-24.1-2.2-6.7-8.4-10.9-15.8-10.9h-2.4z"/><path fill-rule="evenodd" d="m31 34.9c0 2.9-6.8 9.5-9.3 9.3-3.3-0.4-6.7 2.1-6.7 5 0 1.7 1.3 1.8 21.5 1.8 13.7 0 21.5-0.4 21.5-1 0-0.6 0.9-1 2-1 1.1 0 2 0.5 2 1 0 0.8 6.1 1 19.1 0.8l19.1-0.3 3-3.4c2.7-2.9 2.8-3.5 1.4-4.3-2.4-1.3-1.9-3.7 0.9-5 6-2.7 7.2 3.1 2 9.9-4.6 6.1-4 14.3 1.1 14.3 2.8 0 1.3 2.1-2.9 4-5.6 2.6-10.4 2.5-16.1-0.5l-4.9-2.4-2.8 2.1c-4.4 3.3-12.3 3.5-17.9 0.5l-4.5-2.4-4.5 2.4c-5.5 3-13.4 2.8-17.9-0.5l-2.9-2.1-4.8 2.4c-12.5 6.4-26.4-1.8-26.4-15.5 0-7.2 4.2-13.8 10.5-16.6 5.1-2.2 17.5-1.2 17.5 1.5zm-11.1 18.1c-3.5 0-4 0.2-2.9 1.5 0.7 0.8 2.6 1.5 4.1 1.5 1.9 0 2.9-0.5 2.9-1.5 0-1.1-1.1-1.5-4.1-1.5zm10.1 0c-1.1 0-2 0.6-2 1.5 0 0.8 0.9 1.5 2 1.5 1.1 0 2-0.7 2-1.5 0-0.9-0.9-1.5-2-1.5zm6.7 0.6c-1.4 1.4-0.6 2.4 1.8 2.4 1.6 0 2.5-0.6 2.5-1.5 0-1.5-3.1-2.1-4.3-0.9zm10.3-0.6c-1.1 0-2 0.6-2 1.5 0 0.8 0.9 1.5 2 1.5 1.1 0 2-0.7 2-1.5 0-0.9-0.9-1.5-2-1.5zm9.1 0c-1 0-2.1 0.6-2.5 1.5-0.4 1.1 0.1 1.5 2 1.5 1.5 0 2.4-0.6 2.4-1.5 0-0.9-0.8-1.5-1.9-1.5zm9.1 0c-2.2 0-3.2 0.4-3.2 1.5 0 1.9 2.1 1.9 4.6 0 1.8-1.4 1.7-1.5-1.4-1.5zm11.3 2c-2.7 0.1-6.5 1.7-6.5 2.7 0 1.6 8.4 4 10.7 3.2 2.7-1 3-3.4 0.7-4.3-2.2-0.9-2.2-0.8-1.7 1.4 0.4 1.5 0 2-1.6 2-2.3 0-2.8-1.9-0.9-3.8 1-1 0.8-1.2-0.7-1.2z"/><path  d="m5.6 67.5c-1.7 4.5 16.1 8.2 24.2 4.9 3.4-1.3 4.2-1.3 7.5 0 2 0.9 6.1 1.6 9.2 1.6 3 0 7.2-0.7 9.3-1.6 3.4-1.3 4.2-1.3 7.5 0 4.8 2 12.6 2 17.7 0 3.7-1.5 4.4-1.5 8 0 7.5 3 25 0 25-4.3 0-2.2-2-2-6.5 0.4-5.8 3-12.2 3.2-18.3 0.5-4.1-1.9-4.2-1.9-8.4 0-5.6 2.5-12.3 2.5-17.3 0.1-3.9-2-3.9-2-8 0-5.2 2.5-11.7 2.5-17.2 0-4.2-1.9-4.3-1.9-8.5 0-6 2.7-12.4 2.5-18.4-0.5-5.8-3-5-2.9-5.8-1z"/><path  d="m2.1 72.4c-3.9 4.7 17.6 10.3 27.3 7.1 3.8-1.4 4.8-1.4 8.6 0 5.4 1.9 11.7 1.9 17.3 0 3.7-1.3 4.8-1.3 8.2 0 5.2 1.8 11 1.8 17.1 0 4.3-1.3 5.4-1.3 9.1 0 7.7 2.6 17.4 1.2 25.2-3.5 6.2-3.9 2.3-5.5-4.5-1.9-6.4 3.3-15.9 4-21.9 1.4-3-1.2-3.9-1.2-6.9 0-4.4 1.8-15 1.8-19.1 0.1-2.5-1.1-3.7-1.1-6.9 0-5 1.8-13.8 1.7-18.1-0.1-3-1.2-3.9-1.2-6.9 0-6.7 2.8-21.3 0.9-24.6-3.1-1.5-1.8-2.4-1.8-3.9 0z"/></svg>
